<svg width="894" height="1217" xmlns="http://www.w3.org/2000/svg" xmlns:xlink="http://www.w3.org/1999/xlink" xml:space="preserve" overflow="hidden"><g transform="translate(-652 -318)"><path d="M808.003 328.5 1390 328.5C1470.36 328.5 1535.5 393.68 1535.5 474.083L1535.5 1092.51C1535.5 1152.81 1498.86 1204.55 1446.63 1226.65L1440.03 1228.7 1273.43 1324.57 1273.43 1480.08C1273.43 1504.61 1253.55 1524.5 1229.03 1524.5L944.908 1524.5C920.389 1524.5 900.512 1504.61 900.512 1480.08L900.512 1315.96 753.284 1227.24 751.367 1226.65C742.663 1222.96 734.392 1218.46 726.651 1213.23L717.544 1205.71 717.062 1205.42 717.193 1205.42 705.117 1195.45C678.786 1169.1 662.5 1132.71 662.5 1092.51L662.5 474.083C662.5 393.68 727.644 328.5 808.003 328.5Z" stroke="#215F9A" stroke-width="20.625" stroke-miterlimit="8" fill="#FFFFFF" fill-rule="evenodd"/><path d="M828.669 356 1371.33 356C1446.26 356 1507 418.292 1507 495.132L1507 1086.15C1507 1143.78 1472.83 1193.23 1424.14 1214.35L1417.98 1216.31 1248.9 1305.35C1249.19 1359.19 1246.9 1414.74 1247.18 1468.58 1247.18 1492.03 1244.11 1499 1221.24 1499L956.322 1499C933.46 1499 929.524 1484.29 929.524 1460.85L926.948 1298.84 777.648 1214.92 775.861 1214.35C767.745 1210.83 760.033 1206.52 752.815 1201.52L744.324 1194.33 743.875 1194.06 743.997 1194.06 732.737 1184.53C708.185 1159.35 693 1124.57 693 1086.15L693 495.132C693 418.292 753.741 356 828.669 356Z" fill="#FFC000" fill-rule="evenodd"/></g></svg>