<svg width="86" height="117" viewBox="0 0 86 117" fill="none" xmlns="http://www.w3.org/2000/svg">
<mask id="path-1-inside-1_1_21" fill="white">
<path fill-rule="evenodd" clip-rule="evenodd" d="M0 13C0 5.8203 5.8203 0 13 0H73C80.1797 0 86 5.8203 86 13V75C86 78.2146 84.8333 81.1566 82.9001 83.4258C82.4951 84.2344 81.8816 84.98 81.0377 85.596L62 99.4943V108C62 112.971 57.9706 117 53 117H33C28.0294 117 24 112.971 24 108V98.7643L7.7332 86.8889C3.17755 84.8677 0 80.3049 0 75V13Z"/>
</mask>
<path fill-rule="evenodd" clip-rule="evenodd" d="M0 13C0 5.8203 5.8203 0 13 0H73C80.1797 0 86 5.8203 86 13V75C86 78.2146 84.8333 81.1566 82.9001 83.4258C82.4951 84.2344 81.8816 84.98 81.0377 85.596L62 99.4943V108C62 112.971 57.9706 117 53 117H33C28.0294 117 24 112.971 24 108V98.7643L7.7332 86.8889C3.17755 84.8677 0 80.3049 0 75V13Z" fill="#F1F4FC"/>
<path d="M82.9001 83.4258L80.6165 81.4803L80.3806 81.7572L80.2178 82.0823L82.9001 83.4258ZM81.0377 85.596L82.8066 88.019L82.8066 88.019L81.0377 85.596ZM62 99.4943L60.2311 97.0713L59 97.97V99.4943H62ZM24 98.7643H27V97.24L25.7689 96.3412L24 98.7643ZM7.7332 86.8889L9.50209 84.4659L9.24302 84.2767L8.94981 84.1466L7.7332 86.8889ZM13 -3C4.16344 -3 -3 4.16344 -3 13H3C3 7.47715 7.47715 3 13 3V-3ZM73 -3H13V3H73V-3ZM89 13C89 4.16345 81.8366 -3 73 -3V3C78.5228 3 83 7.47715 83 13H89ZM89 75V13H83V75H89ZM85.1838 85.3713C87.5619 82.5798 89 78.954 89 75H83C83 77.4751 82.1046 79.7334 80.6165 81.4803L85.1838 85.3713ZM82.8066 88.019C84.0309 87.1253 84.9602 86.0117 85.5825 84.7693L80.2178 82.0823C80.0301 82.4571 79.7323 82.8347 79.2688 83.173L82.8066 88.019ZM63.7689 101.917L82.8066 88.019L79.2688 83.173L60.2311 97.0713L63.7689 101.917ZM59 99.4943V108H65V99.4943H59ZM59 108C59 111.314 56.3137 114 53 114V120C59.6274 120 65 114.627 65 108H59ZM53 114H33V120H53V114ZM33 114C29.6863 114 27 111.314 27 108H21C21 114.627 26.3726 120 33 120V114ZM27 108V98.7643H21V108H27ZM5.9643 89.3119L22.2311 101.187L25.7689 96.3412L9.50209 84.4659L5.9643 89.3119ZM-3 75C-3 81.5338 0.916046 87.1464 6.51658 89.6311L8.94981 84.1466C5.43906 82.5891 3 79.0761 3 75H-3ZM-3 13V75H3V13H-3Z" fill="#007FB5" mask="url(#path-1-inside-1_1_21)"/>
<path d="M78 77C78 79.7614 75.7614 82 73 82L12 82C9.23858 82 7.00001 79.7614 7.00001 77L7 12C7 9.23858 9.23858 7.00001 12 7.00001L73 7C75.7614 7 78 9.23858 78 12L78 77Z" fill="#FEC483"/>
<path d="M57.0041 107.546C56.9995 110.308 54.7573 112.542 51.9959 112.538L33.9959 112.508C31.2345 112.504 28.9996 110.261 29.0041 107.5L29.0321 90.5C29.0367 87.7386 31.2789 85.5037 34.0403 85.5082L52.0403 85.5379C54.8017 85.5424 57.0366 87.7847 57.0321 90.5461L57.0041 107.546Z" fill="#FEC483"/>
<path d="M53 99.4879C51.4277 100.42 35.6167 100.42 34.0445 99.4879L10.1211 81.8008C5.74736 79.2074 7.58644 72.5 12.6712 72.5L72.3288 72.5C77.4136 72.5 79.2526 79.2074 74.8789 81.8008L53 99.4879Z" fill="#FEC483"/>
</svg>

<svg width="86" height="117" viewBox="0 0 86 117" fill="none" xmlns="http://www.w3.org/2000/svg">
<mask id="path-1-inside-1_1_21" fill="white">
<path fill-rule="evenodd" clip-rule="evenodd" d="M0 13C0 5.8203 5.8203 0 13 0H73C80.1797 0 86 5.8203 86 13V75C86 78.2146 84.8333 81.1566 82.9001 83.4258C82.4951 84.2344 81.8816 84.98 81.0377 85.596L62 99.4943V108C62 112.971 57.9706 117 53 117H33C28.0294 117 24 112.971 24 108V98.7643L7.7332 86.8889C3.17755 84.8677 0 80.3049 0 75V13Z"/>
</mask>
<path fill-rule="evenodd" clip-rule="evenodd" d="M0 13C0 5.8203 5.8203 0 13 0H73C80.1797 0 86 5.8203 86 13V75C86 78.2146 84.8333 81.1566 82.9001 83.4258C82.4951 84.2344 81.8816 84.98 81.0377 85.596L62 99.4943V108C62 112.971 57.9706 117 53 117H33C28.0294 117 24 112.971 24 108V98.7643L7.7332 86.8889C3.17755 84.8677 0 80.3049 0 75V13Z" fill="#F1F4FC"/>
<path d="M82.9001 83.4258L80.6165 81.4803L80.3806 81.7572L80.2178 82.0823L82.9001 83.4258ZM81.0377 85.596L82.8066 88.019L82.8066 88.019L81.0377 85.596ZM62 99.4943L60.2311 97.0713L59 97.97V99.4943H62ZM24 98.7643H27V97.24L25.7689 96.3412L24 98.7643ZM7.7332 86.8889L9.50209 84.4659L9.24302 84.2767L8.94981 84.1466L7.7332 86.8889ZM13 -3C4.16344 -3 -3 4.16344 -3 13H3C3 7.47715 7.47715 3 13 3V-3ZM73 -3H13V3H73V-3ZM89 13C89 4.16345 81.8366 -3 73 -3V3C78.5228 3 83 7.47715 83 13H89ZM89 75V13H83V75H89ZM85.1838 85.3713C87.5619 82.5798 89 78.954 89 75H83C83 77.4751 82.1046 79.7334 80.6165 81.4803L85.1838 85.3713ZM82.8066 88.019C84.0309 87.1253 84.9602 86.0117 85.5825 84.7693L80.2178 82.0823C80.0301 82.4571 79.7323 82.8347 79.2688 83.173L82.8066 88.019ZM63.7689 101.917L82.8066 88.019L79.2688 83.173L60.2311 97.0713L63.7689 101.917ZM59 99.4943V108H65V99.4943H59ZM59 108C59 111.314 56.3137 114 53 114V120C59.6274 120 65 114.627 65 108H59ZM53 114H33V120H53V114ZM33 114C29.6863 114 27 111.314 27 108H21C21 114.627 26.3726 120 33 120V114ZM27 108V98.7643H21V108H27ZM5.9643 89.3119L22.2311 101.187L25.7689 96.3412L9.50209 84.4659L5.9643 89.3119ZM-3 75C-3 81.5338 0.916046 87.1464 6.51658 89.6311L8.94981 84.1466C5.43906 82.5891 3 79.0761 3 75H-3ZM-3 13V75H3V13H-3Z" fill="#007FB5" mask="url(#path-1-inside-1_1_21)"/>
<path d="M78 76.9999C78 79.7613 75.7614 81.9999 73 81.9999L12 81.9999C9.23858 81.9999 7 79.7613 7 76.9999L7 74C7 71.2386 9.23858 69 12 69L73 69C75.7614 69 78 71.2386 78 74L78 76.9999Z" fill="#FEC483"/>
<path d="M57.0041 107.546C56.9995 110.308 54.7573 112.543 51.9958 112.538L33.9959 112.508C31.2345 112.504 28.9996 110.262 29.0041 107.5L29.0321 90.5C29.0366 87.7386 31.2789 85.5037 34.0403 85.5082L52.0403 85.5378C54.8017 85.5424 57.0366 87.7847 57.0321 90.5461L57.0041 107.546Z" fill="#FEC483"/>
<path d="M53 99.488C51.4277 100.42 35.6167 100.42 34.0444 99.488L10.1211 81.8007C5.74735 79.2073 7.58644 72.4999 12.6712 72.4999L72.3288 72.4999C77.4136 72.4999 79.2526 79.2073 74.8789 81.8007L53 99.488Z" fill="#FEC483"/>
</svg>
